HIERARCHY
ROOT hip
{
  OFFSET 0 0 0
  CHANNELS 6 Xposition Yposition Zposition Zrotation Yrotation Xrotation
  JOINT abdomen
  {
    OFFSET 0 20.6881 -0.73152
    CHANNELS 3 Zrotation Xrotation Yrotation
    JOINT chest
    {
      OFFSET 0 11.7043 -0.48768
      CHANNELS 3 Zrotation Xrotation Yrotation
      JOINT neck
      {
        OFFSET 0 22.1894 -2.19456
        CHANNELS 3 Zrotation Xrotation Yrotation
        JOINT head
        {
          OFFSET -0.24384 7.07133 1.2192
          CHANNELS 3 Zrotation Xrotation Yrotation
          JOINT leftEye
          {
            OFFSET 4.14528 8.04674 8.04672
            CHANNELS 3 Zrotation Xrotation Yrotation
            End Site
            {
              OFFSET 1 0 0
            }
          }
          JOINT rightEye
          {
            OFFSET -3.6576 8.04674 8.04672
            CHANNELS 3 Zrotation Xrotation Yrotation
            End Site
            {
              OFFSET 1 0 0
            }
          }
        }
      }
      JOINT rCollar
      {
        OFFSET -2.68224 19.2634 -4.8768
        CHANNELS 3 Zrotation Xrotation Yrotation
        JOINT rShldr
        {
          OFFSET -8.77824 -1.95073 1.46304
          CHANNELS 3 Zrotation Xrotation Yrotation
          JOINT rForeArm
          {
            OFFSET -28.1742 -1.7115 0.48768
            CHANNELS 3 Zrotation Xrotation Yrotation
            JOINT rHand
            {
              OFFSET -22.5879 0.773209 7.07136
              CHANNELS 3 Zrotation Xrotation Yrotation
              JOINT rThumb1
              {
                OFFSET -1.2192 -0.487915 3.41376
                CHANNELS 3 Zrotation Xrotation Yrotation
                JOINT rThumb2
                {
                  OFFSET -3.37035 -0.52449 3.41376
                  CHANNELS 3 Zrotation Xrotation Yrotation
                  End Site
                  {
                    OFFSET -1.78271 -1.18214 1.43049
                  }
                }
              }
              JOINT rIndex1
              {
                OFFSET -7.75947 0.938293 5.60832
                CHANNELS 3 Zrotation Xrotation Yrotation
                JOINT rIndex2
                {
                  OFFSET -2.54057 -0.884171 1.56538
                  CHANNELS 3 Zrotation Xrotation Yrotation
                  End Site
                  {
                    OFFSET -1.62519 -0.234802 1.16502
                  }
                }
              }
              JOINT rMid1
              {
                OFFSET -8.24714 1.18213 3.41376
                CHANNELS 3 Zrotation Xrotation Yrotation
                JOINT rMid2
                {
                  OFFSET -3.10165 -0.590103 1.0647
                  CHANNELS 3 Zrotation Xrotation Yrotation
                  End Site
                  {
                    OFFSET -2.48547 -0.328903 0.83742
                  }
                }
              }
              JOINT rRing1
              {
                OFFSET -8.82822 0.546677 1.51678
                CHANNELS 3 Zrotation Xrotation Yrotation
                JOINT rRing2
                {
                  OFFSET -2.60934 -0.819778 -0.0198488
                  CHANNELS 3 Zrotation Xrotation Yrotation
                  End Site
                  {
                    OFFSET -2.33842 -0.294052 0.168128
                  }
                }
              }
              JOINT rPinky1
              {
                OFFSET -8.27202 -0.0477905 -0.4584
                CHANNELS 3 Zrotation Xrotation Yrotation
                JOINT rPinky2
                {
                  OFFSET -1.82734 -0.647385 -0.700984
                  CHANNELS 3 Zrotation Xrotation Yrotation
                  End Site
                  {
                    OFFSET -1.69225 -0.51767 -0.607171
                  }
                }
              }
            }
          }
        }
      }
      JOINT lCollar
      {
        OFFSET 2.68224 19.2634 -4.8768
        CHANNELS 3 Zrotation Xrotation Yrotation
        JOINT lShldr
        {
          OFFSET 8.77824 -1.95073 1.46304
          CHANNELS 3 Zrotation Xrotation Yrotation
          JOINT lForeArm
          {
            OFFSET 28.1742 -1.7115 0.48768
            CHANNELS 3 Zrotation Xrotation Yrotation
            JOINT lHand
            {
              OFFSET 22.5879 0.773209 7.07136
              CHANNELS 3 Zrotation Xrotation Yrotation
              JOINT lThumb1
              {
                OFFSET 1.2192 -0.487915 3.41376
                CHANNELS 3 Zrotation Xrotation Yrotation
                JOINT lThumb2
                {
                  OFFSET 3.37035 -0.52449 3.41376
                  CHANNELS 3 Zrotation Xrotation Yrotation
                  End Site
                  {
                    OFFSET 1.78271 -1.18214 1.43049
                  }
                }
              }
              JOINT lIndex1
              {
                OFFSET 7.75947 0.938293 5.60832
                CHANNELS 3 Zrotation Xrotation Yrotation
                JOINT lIndex2
                {
                  OFFSET 2.54057 -0.884171 1.56538
                  CHANNELS 3 Zrotation Xrotation Yrotation
                  End Site
                  {
                    OFFSET 1.62519 -0.234802 1.16502
                  }
                }
              }
              JOINT lMid1
              {
                OFFSET 8.24714 1.18213 3.41376
                CHANNELS 3 Zrotation Xrotation Yrotation
                JOINT lMid2
                {
                  OFFSET 3.10165 -0.590103 1.0647
                  CHANNELS 3 Zrotation Xrotation Yrotation
                  End Site
                  {
                    OFFSET 2.48547 -0.328903 0.83742
                  }
                }
              }
              JOINT lRing1
              {
                OFFSET 8.82822 0.546677 1.51678
                CHANNELS 3 Zrotation Xrotation Yrotation
                JOINT lRing2
                {
                  OFFSET 2.60934 -0.819778 -0.0198488
                  CHANNELS 3 Zrotation Xrotation Yrotation
                  End Site
                  {
                    OFFSET 2.33842 -0.294052 0.168128
                  }
                }
              }
              JOINT lPinky1
              {
                OFFSET 8.27202 -0.0477905 -0.4584
                CHANNELS 3 Zrotation Xrotation Yrotation
                JOINT lPinky2
                {
                  OFFSET 1.82734 -0.647385 -0.700984
                  CHANNELS 3 Zrotation Xrotation Yrotation
                  End Site
                  {
                    OFFSET 1.69225 -0.51767 -0.607171
                  }
                }
              }
            }
          }
        }
      }
    }
  }
  JOINT rButtock
  {
    OFFSET -8.77824 4.35084 1.2192
    CHANNELS 3 Zrotation Xrotation Yrotation
    JOINT rThigh
    {
      OFFSET 0 -1.70687 -2.19456
      CHANNELS 3 Zrotation Xrotation Yrotation
      JOINT rShin
      {
        OFFSET 0 -36.8199 0.73152
        CHANNELS 3 Zrotation Xrotation Yrotation
        JOINT rFoot
        {
          OFFSET 0.73152 -45.1104 -5.12064
          CHANNELS 3 Zrotation Xrotation Yrotation
          End Site
          {
            OFFSET -1.1221 -3.69964 12.103
          }
        }
      }
    }
  }
  JOINT lButtock
  {
    OFFSET 8.77824 4.35084 1.2192
    CHANNELS 3 Zrotation Xrotation Yrotation
    JOINT lThigh
    {
      OFFSET 0 -1.70687 -2.19456
      CHANNELS 3 Zrotation Xrotation Yrotation
      JOINT lShin
      {
        OFFSET 0 -36.8199 0.73152
        CHANNELS 3 Zrotation Xrotation Yrotation
        JOINT lFoot
        {
          OFFSET -0.73152 -45.1104 -5.12064
          CHANNELS 3 Zrotation Xrotation Yrotation
          End Site
          {
            OFFSET 1.1221 -3.69964 12.103
          }
        }
      }
    }
  }
}
MOTION
Frames:	9
Frame Time:	0.03333
0.0 0.0 0.0 0.0 0.0 0.0 0.0 0.0 0.0 0.0 0.0 0.0 0.0 0.0 0.0 0.0 0.0 0.0 0.0 0.0 0.0 0.0 0.0 0.0 0.0 0.0 0.0 0.0 0.0 0.0 0.0 0.0 0.0 0.0 0.0 0.0 0.0 0.0 0.0 0.0 0.0 0.0 0.0 0.0 0.0 0.0 0.0 0.0 0.0 0.0 0.0 0.0 0.0 0.0 0.0 0.0 0.0 0.0 0.0 0.0 0.0 0.0 0.0 0.0 0.0 0.0 0.0 0.0 0.0 0.0 0.0 0.0 0.0 0.0 0.0 0.0 0.0 0.0 0.0 0.0 0.0 0.0 0.0 0.0 0.0 0.0 0.0 0.0 0.0 0.0 0.0 0.0 0.0 0.0 0.0 0.0 0.0 0.0 0.0 0.0 0.0 0.0 0.0 0.0 0.0 0.0 0.0 0.0 0.0 0.0 0.0 0.0 0.0 0.0 0.0 0.0 0.0 0.0 0.0 0.0 0.0 0.0 0.0 0.0 0.0 0.0 0.0 0.0 0.0 0.0 0.0 0.0
-3.1966 80.9291 -196.2035 -9.421687 -18.187355 7.787749 5.241938 6.420519 0.0 1.413469 -5.743353 7.418014 -2.514214 37.605686 -172.685208 3.110142 41.776237 135.135836 -0.000693 -0.0 0.002073 -0.000816 0.0 -0.002246 -151.972268 14.764222 157.371741 73.102138 -80.903992 125.712941 -178.365314 71.009941 108.210632 165.51022 -26.489254 142.201328 -6.399306 6.176456 1.319241 -84.421467 19.205581 78.405159 -152.10391 -18.557217 121.367136 -62.064032 57.372107 46.099559 -36.034228 51.723685 29.83187 -88.572786 63.984123 80.471996 0.004935 1.771429 0.556205 -156.318743 -15.213266 173.65256 -145.499195 13.104647 -142.109224 -147.503337 11.482329 -141.642306 153.591793 -75.693494 178.261636 -59.18168 36.709681 82.232965 -0.641434 32.581802 -22.646392 7.108356 43.374829 -4.518635 85.829409 38.630033 -47.95545 27.839873 -5.62137 -35.685869 -10.282746 -18.182346 4.58555 -9.720886 5.688049 0.093278 -68.982992 -80.154329 -40.576639 -2.971603 0.155284 -0.185126 0.014101 -1.323104 0.416203 155.306933 -1.114566 -171.981734 146.226038 15.470017 142.74844 25.759449 -40.234498 27.021433 179.982242 75.749109 0.01215 -167.800002 61.057943 -13.877782 -6.474675 41.202399 -29.682058 90.589273 -9.525528 7.335944 179.982553 75.748499 0.014355 -166.000923 25.476548 -0.0 16.840405 42.512448 -43.210177 -175.011102 -36.299349 -26.345638
-3.1850000000000005 80.8603 -196.1265 -9.391833 -17.830036 7.442435 5.059827 6.24355 -0.0 1.502317 -5.839771 7.15994 -9.89702 19.794939 -23.816251 19.382491 -17.134088 -9.133802 0.000232 -0.0 -0.001881 0.000232 -0.0 -0.001881 0.118115 -0.713992 -0.158423 -100.631782 -21.796587 169.728339 4.038827 -3.205288 -65.162669 163.913185 -28.78631 141.632978 -78.030599 38.689278 42.412704 3.380947 -15.46606 23.966269 -7.260412 10.780333 4.548767 104.521467 -61.853982 51.090173 -32.160732 49.424796 26.230918 -163.100581 -4.754011 143.261912 -145.121917 1.975901 -179.749887 11.763798 29.608687 -5.63523 -111.060276 -41.159947 -109.116754 -20.165709 -37.23168 -22.436931 -4.239484 -44.742794 8.647144 -165.754738 53.833258 98.62464 -162.609598 73.532353 -145.345424 -154.574576 -34.442271 -140.691744 89.135876 38.427059 -50.29933 174.874111 -40.604593 -77.981764 90.225104 41.071564 -75.796675 -8.000272 -3.30051 5.62388 -0.541735 -1.589851 0.294827 5.994747 23.533436 -5.107987 -0.001276 0.063802 -0.019409 55.598175 -86.722872 77.109364 148.681692 23.978015 144.838632 162.594657 55.820899 146.708742 -0.000636 -7.7e-05 0.000817 6.481722 -13.825057 -24.467052 -22.680975 48.110701 -173.250649 176.878767 1.830488 -173.429983 -179.994835 75.749719 -0.005329 -166.11393 23.305163 -180.0 -33.56353 -49.139487 -109.819523 -90.74364 -58.382074 167.821286
-3.2397 80.8522 -196.1465 -9.362109 -17.564873 7.176957 2.986119 5.149748 56.211909 -2.031176 -5.439511 -49.094683 -12.419232 33.022031 -109.245206 31.923466 22.635171 67.878987 -0.000612 -0.0 0.000581 -0.000612 -0.0 0.000581 -159.22108 -48.380834 170.491936 -60.693106 -22.143976 -44.775474 -174.547492 -9.331793 -156.428434 -6.262001 27.355869 1.586889 -169.29043 -6.971636 89.920742 -47.976976 -15.090807 10.261294 -145.087675 -5.825025 118.555245 -79.93209 57.25937 61.098071 -36.036949 51.72277 29.832726 -29.080191 52.038592 24.351933 0.004501 1.771403 0.556386 2.121596 47.73635 9.94871 -156.379899 53.734396 -150.118587 -26.105564 -40.310359 -26.62706 143.333857 38.771168 -147.774921 178.233785 33.43438 -109.625363 -62.022986 -46.505665 -14.818476 -174.6583 17.783596 -152.831509 78.030687 38.689054 -42.412696 92.299951 -5.110849 -69.050125 -0.18643 -0.299868 0.104503 -152.78741 -54.57723 -88.649713 14.095016 30.982714 -10.182407 167.21317 -17.332715 -144.197225 145.121747 1.975863 179.747961 73.816008 -78.004715 95.17864 155.357195 49.792283 149.603756 26.095838 -40.290191 26.684066 0.001506 0.001045 0.0 7.231662 -14.857344 -95.775303 -40.936358 -3.880516 100.762754 115.797586 -49.490313 22.871581 179.996694 75.750896 0.001692 -166.344356 25.80407 -5.78936 11.481184 44.179582 -38.302751 -91.671678 -45.278016 8.728439
-3.3651 80.7717 -196.3305 -9.247473 -17.50772 7.089074 2.825249 2.138798 127.098055 -3.651539 -1.517291 -120.121794 -8.137031 18.484027 -12.818769 13.636849 -19.671345 -21.005124 -0.002317 -0.0 0.005035 0.003227 0.0 0.000682 -48.780092 -86.435545 -70.443068 -78.26587 -30.008288 -89.948139 169.0586 14.441338 -158.236969 -18.107506 53.923748 7.790739 -17.261029 15.647469 4.954242 161.14184 -73.909507 78.09938 -148.886319 -12.610416 120.243283 -62.460459 57.285198 45.900447 -9.540603 23.115194 6.511455 -7.235971 26.206145 6.049159 -69.297397 72.946008 87.017432 -157.270327 44.236304 169.284287 -1.179092 -2.984967 -1.093234 -142.849277 -1.616446 -140.039619 -3.771431 -33.701861 6.515622 -72.200841 8.17806 31.533794 -5.977602 1.903973 -21.820295 9.961402 49.19253 -5.420115 178.928049 -16.453424 -89.422485 -9.385525 -62.842765 -8.797227 108.426459 34.161004 -91.743495 -12.031319 -10.220417 7.435189 -9.41577 -29.555513 3.211369 172.190592 -31.330083 -144.06872 145.099712 -1.480254 178.663376 -11.246181 63.277798 0.681724 152.877355 39.992813 148.055152 -45.634074 80.130582 9.794053 179.99549 75.749645 0.003711 -166.463528 59.527008 -126.993386 -52.245262 -14.228682 -106.990892 -122.626936 7.301875 -162.424352 179.999766 75.750336 -0.0 -166.436794 25.742007 -0.0 23.638928 41.29732 -2.936275 56.547588 -28.17827 -28.924037
-3.6622000000000003 80.6678 -196.6745 -8.908693 -17.609441 6.865209 4.192458 5.966914 -0.262549 1.489832 -5.876181 6.969704 -14.552122 29.765685 -91.027202 33.889815 15.111206 52.874013 0.005071 0.0 0.004865 -0.000802 0.0 -0.003103 -155.459989 -3.228025 161.776873 125.568162 -23.518659 170.179813 176.63704 28.732454 126.99264 164.745389 -23.246335 143.426428 -0.491128 0.484789 0.078616 39.429468 -62.783609 -17.023705 -153.453379 -21.067763 121.744352 -87.550022 56.536255 69.44098 -161.153427 -8.160658 143.465113 43.378855 -69.577251 17.909067 0.000617 0.06378 0.02 10.314241 0.161941 -0.046336 -168.137534 80.281564 -148.037561 -95.011652 -50.794902 -93.232937 155.446138 -3.1344 -161.757983 10.920036 -85.108092 -44.965632 -71.124598 73.534775 122.479677 -163.957317 -18.134611 -146.16733 107.93376 35.150435 -63.318304 -22.302006 -32.987887 -25.130892 46.209196 39.652284 -36.318646 102.514889 46.775625 -77.14336 36.037238 51.722519 -29.833231 -2.837346 1.674407 -0.299034 67.608019 -72.075303 84.373335 71.740523 83.174341 -89.525712 156.383694 53.734288 150.116609 21.790583 -36.851294 22.541901 0.001317 0.001282 0.000658 7.051669 -15.294352 -99.542284 -50.422821 -0.575733 -153.640971 149.006858 30.712743 141.462451 179.99856 75.74836 0.001486 -167.202978 24.786012 78.485456 58.864708 -4.156318 96.540602 91.994735 13.752592 176.473524
-4.0733 80.56569999999999 -197.0875 -8.61449 -16.848088 6.616268 2.421247 4.931859 47.550489 -1.827391 -5.61255 -42.371707 8.237072 28.687533 108.002366 -28.908006 18.362227 -141.964054 -0.002652 -0.0 9e-05 -0.002652 -0.0 9e-05 1.699285 -70.103284 -16.502429 26.334658 3.72422 -56.37374 145.655829 -70.721203 86.068983 168.183436 -16.076417 144.767348 -164.88712 -2.560146 89.606603 104.447793 -61.084746 75.902846 -46.208305 39.653071 36.318194 -169.658264 -19.074644 111.886017 -8.304827 20.652837 5.560317 3.166478 0.418844 0.043523 0.002634 0.063611 0.021053 -154.242315 12.766926 170.105414 -156.384552 53.734624 -150.114947 -152.305348 24.327361 -144.532283 29.826264 58.184994 -32.231372 147.910926 -24.297552 -111.395982 136.66563 2.838262 -170.106328 -17.034171 -30.041345 -11.293206 171.706677 -9.3882 -89.948685 26.30946 -34.84083 -3.477646 153.452877 -21.067693 -121.744885 78.996611 57.460301 -61.705878 -15.670785 -46.713508 2.539086 163.68357 -5.546009 -143.359035 0.060163 -3.508394 1.10486 156.078173 -20.605226 -174.282847 145.173582 12.06661 141.824857 -3.68661 3.555428 0.929374 -0.0045 -0.000659 -0.0045 5.713636 -16.358825 -180.0 -13.686166 -50.110309 -84.658339 83.618912 60.984976 175.095705 -0.003918 -0.000557 -0.001959 19.085567 -47.898694 14.653683 19.19909 43.406323 15.383493 165.277401 -43.742167 24.213981
-4.6528 80.50540000000001 -197.67950000000002 -8.50941 -16.932379 6.292191 2.566405 2.039302 128.446593 -3.288787 -0.868809 -123.498959 -1.099557 36.817874 -179.681457 0.002622 41.324597 143.567401 0.003041 -0.0 -0.000758 -0.002678 0.0 -0.000516 -159.222078 -48.380936 170.491147 -163.489194 -56.513439 -116.630077 -6.732212 63.838088 -51.497844 161.863954 -33.505418 140.137979 -178.138409 -15.698303 89.524013 147.954454 -48.662497 102.428616 -160.015335 -33.011582 122.699153 -55.383955 56.74777 41.418285 -36.03685 51.72288 29.832487 2.837847 1.674424 0.300728 -0.060338 -3.50831 -1.105401 11.3566 -12.961367 -1.629964 -145.500057 13.104387 -142.109407 -153.935076 31.451753 -145.31955 157.371347 -17.927528 -164.690932 52.662974 20.315908 8.659636 -165.4531 50.897107 139.269256 16.245879 55.116972 -7.564089 179.372845 -16.877369 -89.359815 -8.973801 -62.911026 -8.325535 1.955568 3.106027 -1.139748 -54.840229 -48.811589 -12.013709 -23.902633 -61.334054 -1.397442 163.175842 -3.903124 -143.143513 145.122173 1.974447 179.74884 -11.919816 48.576657 3.333804 25.539597 -38.086511 24.599866 -2.070565 -3.034646 1.25605 -179.97125 75.749088 -0.023655 -168.769492 60.420355 -9.687308 13.218105 44.311086 56.547497 -28.60924 -15.098183 -98.024584 179.994295 75.750122 0.003903 -165.769234 25.843946 -6.050425 8.371342 44.441967 -54.637315 64.638322 29.507337 -1.973616
-5.2669 80.486 -198.14350000000002 -8.659929 -16.825983 5.910267 3.174418 2.201031 124.702034 -3.200694 -1.065731 -120.411086 6.348156 23.318627 76.848867 -28.656603 0.815021 -112.744955 -0.002627 0.0 -0.000182 0.002795 -0.0 -0.004661 -155.569961 -3.94301 161.929918 2.473458 -77.434953 56.809864 -86.069231 -73.083277 -64.934285 0.485844 1.958289 0.563841 -5.262559 5.103261 1.036289 -144.635472 -51.518792 116.82315 -81.655962 42.620822 68.125855 -160.158086 -3.023105 113.767288 -89.835833 60.701842 81.262496 9.385416 -18.126098 -1.290687 -145.118657 0.267725 -179.212466 12.069466 36.619846 -4.847943 -126.796892 -26.618007 -124.510828 -147.498878 13.802987 -142.484131 9.651317 34.836189 -11.199347 -66.689554 11.673649 -37.915387 -162.587851 14.411787 -121.323408 -168.68304 -10.289156 -146.610152 93.744441 37.964265 -53.548053 110.180791 -10.756346 -70.970628 -60.459666 -70.524531 -15.709626 55.816099 52.881152 -45.966016 0.057106 0.167927 -0.032503 175.198159 -39.368638 -143.350558 0.000874 0.022681 -0.00675 -11.524593 -27.753352 3.325923 110.054555 -41.781524 108.126691 146.313396 10.973416 142.146358 179.989008 75.750071 0.009699 -167.524464 60.36069 -14.281534 -3.259083 54.57016 -138.194298 47.539587 -32.112328 131.470182 0.0 0.000208 -0.001529 20.862911 -49.606092 -153.41583 -37.226557 -45.42113 -112.532258 7.610756 63.361404 -103.186924
